<svg xmlns="http://www.w3.org/2000/svg" viewBox="0 0 512 512">
  <rect width="512" height="512" rx="96" fill="#343579"/>
  <g fill="#fff">
    <rect x="136" y="146" width="112" height="100" rx="8"/>
    <rect x="264" y="146" width="112" height="100" rx="8"/>
    <rect x="136" y="266" width="112" height="100" rx="8"/>
    <rect x="264" y="266" width="112" height="100" rx="8"/>
    <rect x="116" y="378" width="280" height="22" rx="4"/>
    <rect x="130" y="400" width="40" height="24"/>
    <rect x="236" y="400" width="40" height="24"/>
    <rect x="342" y="400" width="40" height="24"/>
    <rect x="116" y="424" width="280" height="14" rx="4"/>
  </g>
  <g fill="#343579" opacity=".22">
    <rect x="186" y="146" width="12" height="100"/>
    <rect x="314" y="146" width="12" height="100"/>
    <rect x="186" y="266" width="12" height="100"/>
    <rect x="314" y="266" width="12" height="100"/>
  </g>
  <rect x="92" y="248" width="328" height="16" rx="8" fill="#F87C56"/>
</svg>
